<svg width="38" height="38" fill="none" xmlns="http://www.w3.org/2000/svg"><path d="M33.25 14.25h-2.248L25.124 3.965l-2.748 1.57 4.98 8.715H10.644l4.98-8.715-2.75-1.57L6.999 14.25H4.75a1.585 1.585 0 00-1.528 2L7.654 32.5a3.174 3.174 0 003.056 2.332h16.582a3.176 3.176 0 003.056-2.335l4.431-16.25a1.58 1.58 0 00-1.53-1.998zm-5.96 17.417v1.583-1.583H10.71l-3.886-14.25h24.352l-3.886 14.25z" fill="#623C19" fill-opacity=".96"/><path d="M14.25 20.583h3.167V28.5H14.25v-7.917zm6.333 0h3.167V28.5h-3.167v-7.917z" fill="#623C19" fill-opacity=".96"/></svg>