<svg xmlns="http://www.w3.org/2000/svg" width="46" height="32"><path d="M38.813 4.587A4.578 4.578 0 0034.248.022H27.4v4.565h6.848v6.049l-7.944 9.929h-8.035V9.152H9.138a9.128 9.128 0 00-9.131 9.131v6.848h4.565c0 3.789 3.059 6.848 6.848 6.848s6.848-3.059 6.848-6.848h10.226l10.318-12.897V4.587zM4.574 20.565v-2.283a4.578 4.578 0 014.565-4.565h4.565v6.848h-9.13zm6.848 6.848a2.29 2.29 0 01-2.283-2.283h4.565a2.29 2.29 0 01-2.283 2.283z"/><path d="M6.857 2.304H18.27v4.565H6.857V2.304zm31.956 15.979c-3.789 0-6.848 3.059-6.848 6.848s3.059 6.848 6.848 6.848c3.789 0 6.848-3.059 6.848-6.848s-3.059-6.848-6.848-6.848zm0 9.13c-1.255 0-2.283-1.027-2.283-2.283s1.027-2.283 2.283-2.283c1.255 0 2.283 1.027 2.283 2.283s-1.027 2.283-2.283 2.283z"/></svg>