<svg width="34" height="34" fill="none" xmlns="http://www.w3.org/2000/svg"><path d="M15.237 8.981L10.33 3.32c-.565-.652-1.602-.65-2.259.009l-4.034 4.04c-1.2 1.203-1.544 2.988-.85 4.42a42.35 42.35 0 0019.664 19.69c1.43.694 3.213.35 4.414-.851l4.071-4.079c.66-.66.662-1.702.003-2.268l-5.684-4.879c-.594-.51-1.518-.444-2.114.154l-1.978 1.98a.67.67 0 01-.802.128 21.11 21.11 0 01-7.771-7.782.672.672 0 01.127-.803l1.972-1.974c.598-.6.663-1.528.147-2.124v.001z" stroke="#623C19" stroke-opacity=".96" stroke-width="3" stroke-linecap="round" stroke-linejoin="round"/></svg>