<svg xmlns="http://www.w3.org/2000/svg" width="32" height="32"><path d="M4.978 3.556a1.423 1.423 0 00-1.423 1.423v5.689h7.111V3.557H4.977zm3.911 5.333H5.333V5.333h3.556v3.556zM3.556 27.022a1.423 1.423 0 001.423 1.423h5.689v-7.111H3.557v5.689zm1.777-3.911h3.556v3.556H5.333v-3.556zm16 5.333h5.689a1.423 1.423 0 001.423-1.423v-5.689h-7.111v7.111zm1.778-5.333h3.556v3.556h-3.556v-3.556zm3.911-19.555h-5.689v7.111h7.111V4.978a1.423 1.423 0 00-1.423-1.423zm-.355 5.333h-3.556V5.333h3.556v3.556zm-8.889 0V7.111h-3.556v3.556H16V8.889h1.778zm-7.111 1.778h1.778v1.778h-1.778v-1.778z"/><path d="M12.444 12.444H16v1.778h-3.556v-1.778zm5.334-7.111v1.778h1.778V3.555h-7.111v3.556h1.778V5.333h3.556zM3.556 12.444h1.778V16H3.556v-3.556z"/><path d="M10.667 14.222V16H8.889v-3.556H7.111V16H5.333v1.778H3.555v1.778h3.556v-1.778h1.778v1.778h1.778v-1.778h1.778v-3.556h-1.778zm7.111 0h1.778V16h1.778v-1.778h1.778v-1.778h-3.556V8.888h-1.778v1.778H16v1.778h1.778v1.778zM16 26.667h-3.556v1.778h7.111v-1.778h-1.778v-1.778h-1.778v1.778z"/><path d="M19.556 17.778V16h-1.778v-1.778H16V16h-1.778v1.778H16v1.778h1.778v-1.778h1.778zm7.111 0h1.778v1.778h-1.778v-1.778zm-7.111 0h5.333v1.778h-5.333v-1.778zm7.111-5.334h-1.778v1.778h-1.778V16h1.778v1.778h1.778V16h1.778v-1.778h-1.778v-1.778zm-8.889 7.112h1.778v5.333h-1.778v-5.333z"/><path d="M12.444 24.889h1.778v-1.778H16v-1.778h-1.778v-3.556h-1.778v7.111z"/></svg>