<svg width="441" height="309" fill="none" xmlns="http://www.w3.org/2000/svg"><path d="M374.792 44.292c0-24.246-19.838-44.084-44.084-44.084h-66.125v44.084h66.125v58.41l-76.705 95.881h-77.586V88.375H88.25C39.538 88.375.083 127.83.083 176.542v66.125h44.084c0 36.589 29.535 66.125 66.125 66.125 36.589 0 66.125-29.536 66.125-66.125h98.746l99.629-124.536v-73.84zM44.167 198.583v-22.041c0-24.246 19.837-44.084 44.083-44.084h44.083v66.125H44.167zm66.125 66.125c-12.123 0-22.042-9.918-22.042-22.041h44.083c0 12.123-9.918 22.041-22.041 22.041z" fill="#623C19" fill-opacity=".96"/><path d="M66.208 22.25h110.209v44.083H66.208V22.25zm308.584 154.292c-36.59 0-66.125 29.536-66.125 66.125s29.535 66.125 66.125 66.125c36.589 0 66.125-29.536 66.125-66.125s-29.536-66.125-66.125-66.125zm0 88.166c-12.123 0-22.042-9.918-22.042-22.041 0-12.123 9.919-22.042 22.042-22.042 12.123 0 22.041 9.919 22.041 22.042 0 12.123-9.918 22.041-22.041 22.041z" fill="#623C19" fill-opacity=".96"/></svg>