<svg width="273" height="273" fill="none" xmlns="http://www.w3.org/2000/svg"><path d="M42.467 30.333a12.134 12.134 0 00-12.134 12.134V91H91V30.333H42.467zm33.366 45.5H45.5V45.5h30.333v30.333zm-45.5 154.7a12.135 12.135 0 0012.134 12.134H91V182H30.333v48.533zM45.5 197.167h30.333V227.5H45.5v-30.333zm136.5 45.5h48.533a12.137 12.137 0 0012.134-12.134V182H182v60.667zm15.167-45.5H227.5V227.5h-30.333v-30.333zm33.366-166.834H182V91h60.667V42.467a12.136 12.136 0 00-12.134-12.134zm-3.033 45.5h-30.333V45.5H227.5v30.333zm-75.833 0V60.667h-30.334V91H136.5V75.833h15.167zM91 91h15.167v15.167H91V91zm15.167 15.167H136.5v15.166h-30.333v-15.166zm45.5-60.667v15.167h15.166V30.333h-60.666v30.334h15.166V45.5h30.334zM30.333 106.167H45.5V136.5H30.333v-30.333z" fill="#000"/><path d="M91 121.333V136.5H75.833v-30.333H60.667V136.5H45.5v15.167H30.333v15.166h30.334v-15.166h15.166v15.166H91v-15.166h15.167v-30.334H91zm60.667 0h15.166V136.5H182v-15.167h15.167v-15.166h-30.334V75.833h-15.166V91H136.5v15.167h15.167v15.166zM136.5 227.5h-30.333v15.167h60.666V227.5h-15.166v-15.167H136.5V227.5z" fill="#000"/><path d="M166.833 151.667V136.5h-15.166v-15.167H136.5V136.5h-15.167v15.167H136.5v15.166h15.167v-15.166h15.166zm60.667 0h15.167v15.166H227.5v-15.166zm-60.667 0h45.5v15.166h-45.5v-15.166zm60.667-45.5h-15.167v15.166h-15.166V136.5h15.166v15.167H227.5V136.5h15.167v-15.167H227.5v-15.166zm-75.833 60.666h15.166v45.5h-15.166v-45.5zm-45.5 45.5h15.166v-15.166H136.5V182h-15.167v-30.333h-15.166v60.666z" fill="#000"/></svg>