<svg width="44" height="44" fill="none" xmlns="http://www.w3.org/2000/svg"><path d="M38.5 16.5h-2.603L29.09 4.59l-3.18 1.82 5.765 10.09h-19.35l5.768-10.09-3.184-1.82L8.103 16.5H5.5a1.834 1.834 0 00-1.77 2.316l5.132 18.817a3.676 3.676 0 003.539 2.7h19.2a3.677 3.677 0 003.538-2.704l5.132-18.815A1.83 1.83 0 0038.5 16.5zm-6.9 20.167V38.5v-1.833H12.4l-4.498-16.5h28.196l-4.499 16.5z" fill="#BC7636" fill-opacity=".96"/><path d="M16.5 23.833h3.667V33H16.5v-9.167zm7.333 0H27.5V33h-3.667v-9.167z" fill="#BC7636" fill-opacity=".96"/></svg>