<svg width="145" height="52" fill="none" xmlns="http://www.w3.org/2000/svg"><rect y="11.22" width="40" height="40" rx="20" fill="url(#paint0_linear)"/><path d="M34.215 33.87l-1.5 3.419a37.415 37.415 0 01-19.028-18.825l3.402-1.532a33.668 33.668 0 0017.126 16.942v-.004zM46.882 5.165L35.884 30.283a29.93 29.93 0 01-15.222-15.059l3.272-1.475a2.789 2.789 0 002.741 2.326 2.825 2.825 0 002.81-2.836 2.765 2.765 0 00-.643-1.704l16.815-7.582a.924.924 0 011.229 1.212h-.004zM34.087 17.787a2.795 2.795 0 10.03 5.591 2.795 2.795 0 00-.03-5.59zm3.702-7.415a2.758 2.758 0 10.03 5.516 2.758 2.758 0 00-.03-5.516z" fill="url(#paint1_linear)" fill-opacity=".71"/><path d="M66.334 21.22h-2.98v-7.224h-2.618v7.224h-2.962v-9.51h8.56v9.51zm10.081-9.51v9.51h-2.962v-7.224h-1.775l-.158 2.909c-.112 1.441-.437 2.52-.976 3.234-.539.715-1.339 1.075-2.4 1.081h-.93l-.036-2.267.308-.035c.392-.047.682-.308.87-.783.193-.48.316-1.204.369-2.17l.184-4.255h7.506zm6.97 9.51c-.106-.193-.2-.477-.281-.852-.545.685-1.307 1.028-2.285 1.028-.897 0-1.659-.27-2.286-.809-.627-.544-.94-1.227-.94-2.047 0-1.032.38-1.811 1.143-2.338.761-.528 1.869-.791 3.322-.791h.914v-.501c0-.873-.378-1.31-1.134-1.31-.703 0-1.055.346-1.055 1.037h-2.962c0-.92.39-1.667 1.17-2.241.785-.574 1.784-.861 2.996-.861 1.213 0 2.171.296 2.875.887.703.592 1.063 1.404 1.08 2.435v4.21c.012.873.147 1.54.405 2.004v.15h-2.962zm-1.855-1.933c.37 0 .674-.08.915-.238.246-.158.422-.337.527-.536v-1.52h-.861c-1.032 0-1.547.463-1.547 1.388 0 .27.09.49.272.66.182.164.413.246.695.246zm14.53 1.933h-2.97v-3.524h-2.594v3.524h-2.962v-9.51h2.962v3.71h2.593v-3.71h2.97v9.51zm6.222.176c-1.458 0-2.64-.434-3.541-1.3-.903-.874-1.354-2.008-1.354-3.402v-.246c0-.973.179-1.831.536-2.575a3.955 3.955 0 011.582-1.723c.692-.41 1.512-.615 2.461-.615 1.336 0 2.391.416 3.164 1.248.774.826 1.16 1.98 1.16 3.463v1.151h-5.888c.105.533.337.952.694 1.257.357.305.82.457 1.389.457.937 0 1.67-.328 2.197-.985l1.353 1.6c-.369.51-.893.917-1.573 1.222-.674.299-1.4.448-2.18.448zm-.333-7.576c-.868 0-1.383.574-1.547 1.723h2.988v-.229c.012-.475-.108-.84-.36-1.099-.252-.263-.613-.395-1.081-.395zm13.763.158h-2.997v7.242h-2.979v-7.242h-2.954V11.71h8.93v2.268zm6.328 7.242c-.105-.193-.199-.477-.281-.852-.545.685-1.307 1.028-2.285 1.028-.897 0-1.658-.27-2.285-.809-.627-.544-.941-1.227-.941-2.047 0-1.032.381-1.811 1.143-2.338.762-.528 1.869-.791 3.322-.791h.914v-.501c0-.873-.378-1.31-1.134-1.31-.703 0-1.054.346-1.054 1.037h-2.962c0-.92.389-1.667 1.169-2.241.785-.574 1.784-.861 2.997-.861 1.213 0 2.171.296 2.874.887.703.592 1.063 1.404 1.081 2.435v4.21c.012.873.146 1.54.404 2.004v.15h-2.962zm-1.854-1.933c.369 0 .674-.08.914-.238.246-.158.422-.337.527-.536v-1.52h-.861c-1.031 0-1.547.463-1.547 1.388 0 .27.091.49.272.66a1 1 0 00.695.246zM66.335 42.22h-2.98v-7.224h-2.62v7.224h-2.961v-9.51h8.56v9.51zm7.118-9.51h2.971v9.51h-2.97v-5.537l-2.611 5.537h-2.98v-9.51h2.98v5.52l2.61-5.52zm4.5 0h2.962v7.225h2.62V32.71h2.979v7.243h1.564l-.175 5.088h-2.795v-2.82h-7.155v-9.51zm11.092 0h2.962v7.225h2.62V32.71h2.979v7.243h1.564l-.176 5.088H96.2v-2.82h-7.155v-9.51zm14.326 2.61h1.521c.879 0 1.652.144 2.32.431.668.288 1.178.695 1.529 1.222.352.528.528 1.14.528 1.837 0 1.025-.399 1.852-1.196 2.479-.791.62-1.872.931-3.243.931h-4.438v-9.51h2.979v2.61zm10.284 6.9h-2.98v-9.51h2.98v9.51zm-10.284-4.623v2.356h1.503c.451 0 .803-.103 1.055-.308.258-.21.387-.495.387-.853 0-.351-.115-.638-.343-.86-.229-.224-.595-.335-1.099-.335h-1.503z" fill="#fff"/><defs><linearGradient id="paint0_linear" x1="26.5" y1="17.22" x2="8" y2="48.22" gradientUnits="userSpaceOnUse"><stop stop-color="#F0B278"/><stop offset="1" stop-color="#BC7636" stop-opacity=".96"/></linearGradient><linearGradient id="paint1_linear" x1="20" y1="30.22" x2="38.5" y2="11.72" gradientUnits="userSpaceOnUse"><stop stop-color="#E48585"/><stop offset="1" stop-color="#DA1919"/></linearGradient></defs></svg>